<mxfile host="app.diagrams.net" modified="2021-07-10T06:52:43.698Z" agent="5.0 (X11)" etag="Lnk9PjEXH9ZXtW5WOPWz" version="14.8.4" type="github">
  <diagram id="BAREEegmHh4ikzztfYit" name="ページ1">
    <mxGraphModel dx="1591" dy="-42" grid="1" gridSize="10" guides="1" tooltips="1" connect="1" arrows="1" fold="1" page="1" pageScale="1" pageWidth="600" pageHeight="600" math="0" shadow="0">
      <root>
        <mxCell id="0" />
        <mxCell id="1" parent="0" />
        <mxCell id="BIsey0PxNQM_dKFQf3kn-27" value="" style="rounded=0;whiteSpace=wrap;html=1;sketch=0;fontColor=#5AA9E6;fillColor=#FFFFFF;strokeColor=none;" parent="1" vertex="1">
          <mxGeometry x="20" y="620" width="560" height="560" as="geometry" />
        </mxCell>
        <mxCell id="BIsey0PxNQM_dKFQf3kn-1" value="" style="ellipse;whiteSpace=wrap;html=1;aspect=fixed;" parent="1" vertex="1">
          <mxGeometry x="120" y="720" width="360" height="360" as="geometry" />
        </mxCell>
        <mxCell id="BIsey0PxNQM_dKFQf3kn-2" value="" style="ellipse;whiteSpace=wrap;html=1;aspect=fixed;strokeWidth=3;strokeColor=#FF8000;fillColor=#FF9933;" parent="1" vertex="1">
          <mxGeometry x="386" y="725" width="40" height="40" as="geometry" />
        </mxCell>
        <mxCell id="BIsey0PxNQM_dKFQf3kn-4" value="" style="ellipse;whiteSpace=wrap;html=1;aspect=fixed;strokeWidth=3;strokeColor=#FF8000;fillColor=#FF9933;" parent="1" vertex="1">
          <mxGeometry x="436" y="785" width="40" height="40" as="geometry" />
        </mxCell>
        <mxCell id="BIsey0PxNQM_dKFQf3kn-5" value="" style="ellipse;whiteSpace=wrap;html=1;aspect=fixed;strokeWidth=3;strokeColor=#FF8000;fillColor=#FF9933;" parent="1" vertex="1">
          <mxGeometry x="106" y="815" width="40" height="40" as="geometry" />
        </mxCell>
        <mxCell id="BIsey0PxNQM_dKFQf3kn-6" value="" style="ellipse;whiteSpace=wrap;html=1;aspect=fixed;strokeWidth=3;strokeColor=#FF8000;fillColor=#FF9933;" parent="1" vertex="1">
          <mxGeometry x="116" y="955" width="40" height="40" as="geometry" />
        </mxCell>
        <mxCell id="BIsey0PxNQM_dKFQf3kn-7" value="" style="ellipse;whiteSpace=wrap;html=1;aspect=fixed;strokeWidth=3;strokeColor=#FF8000;fillColor=#FF9933;" parent="1" vertex="1">
          <mxGeometry x="416" y="1005" width="40" height="40" as="geometry" />
        </mxCell>
        <mxCell id="BIsey0PxNQM_dKFQf3kn-8" value="" style="ellipse;whiteSpace=wrap;html=1;aspect=fixed;strokeWidth=3;strokeColor=#FF8000;fillColor=#FF9933;" parent="1" vertex="1">
          <mxGeometry x="206" y="1045" width="40" height="40" as="geometry" />
        </mxCell>
        <mxCell id="BIsey0PxNQM_dKFQf3kn-9" value="" style="ellipse;whiteSpace=wrap;html=1;aspect=fixed;strokeWidth=3;fillColor=#3399FF;strokeColor=#0066CC;" parent="1" vertex="1">
          <mxGeometry x="280" y="705" width="40" height="40" as="geometry" />
        </mxCell>
        <mxCell id="BIsey0PxNQM_dKFQf3kn-11" value="" style="ellipse;whiteSpace=wrap;html=1;aspect=fixed;strokeWidth=3;fillColor=#3399FF;strokeColor=#0066CC;" parent="1" vertex="1">
          <mxGeometry x="456" y="855" width="40" height="40" as="geometry" />
        </mxCell>
        <mxCell id="BIsey0PxNQM_dKFQf3kn-12" value="" style="ellipse;whiteSpace=wrap;html=1;aspect=fixed;strokeWidth=3;fillColor=#3399FF;strokeColor=#0066CC;" parent="1" vertex="1">
          <mxGeometry x="440" y="955" width="40" height="40" as="geometry" />
        </mxCell>
        <mxCell id="BIsey0PxNQM_dKFQf3kn-13" value="" style="ellipse;whiteSpace=wrap;html=1;aspect=fixed;strokeWidth=3;fillColor=#3399FF;strokeColor=#0066CC;" parent="1" vertex="1">
          <mxGeometry x="326" y="1055" width="40" height="40" as="geometry" />
        </mxCell>
        <mxCell id="BIsey0PxNQM_dKFQf3kn-14" value="" style="ellipse;whiteSpace=wrap;html=1;aspect=fixed;strokeWidth=3;fillColor=#3399FF;strokeColor=#0066CC;" parent="1" vertex="1">
          <mxGeometry x="146" y="765" width="40" height="40" as="geometry" />
        </mxCell>
        <mxCell id="BIsey0PxNQM_dKFQf3kn-15" value="Node" style="text;html=1;align=center;verticalAlign=middle;resizable=0;points=[];autosize=1;strokeColor=none;container=1;" parent="1" vertex="1">
          <mxGeometry x="280" y="685" width="40" height="20" as="geometry" />
        </mxCell>
        <mxCell id="BIsey0PxNQM_dKFQf3kn-16" value="Data" style="text;html=1;align=center;verticalAlign=middle;resizable=0;points=[];autosize=1;strokeColor=none;" parent="1" vertex="1">
          <mxGeometry x="386" y="705" width="40" height="20" as="geometry" />
        </mxCell>
        <mxCell id="BIsey0PxNQM_dKFQf3kn-17" value="a4n56256l6nlljgg" style="text;html=1;strokeColor=none;fillColor=none;align=center;verticalAlign=middle;whiteSpace=wrap;rounded=0;" parent="1" vertex="1">
          <mxGeometry x="280" y="665" width="40" height="20" as="geometry" />
        </mxCell>
        <mxCell id="BIsey0PxNQM_dKFQf3kn-19" value="&lt;div&gt;cadfafdafajfd&lt;/div&gt;" style="text;html=1;strokeColor=none;fillColor=none;align=center;verticalAlign=middle;whiteSpace=wrap;rounded=0;" parent="1" vertex="1">
          <mxGeometry x="386" y="685" width="40" height="20" as="geometry" />
        </mxCell>
        <mxCell id="BIsey0PxNQM_dKFQf3kn-28" value="" style="ellipse;whiteSpace=wrap;html=1;aspect=fixed;strokeWidth=3;strokeColor=#FF8000;fillColor=#FF9933;" parent="1" vertex="1">
          <mxGeometry x="140" y="775" width="40" height="40" as="geometry" />
        </mxCell>
        <mxCell id="BIsey0PxNQM_dKFQf3kn-30" value="" style="ellipse;whiteSpace=wrap;html=1;rounded=0;sketch=0;fontColor=#5AA9E6;strokeColor=#808080;strokeWidth=2;fillColor=none;direction=west;rotation=55;" parent="1" vertex="1">
          <mxGeometry x="320" y="760" width="246" height="104.35" as="geometry" />
        </mxCell>
        <mxCell id="BIsey0PxNQM_dKFQf3kn-31" value="" style="ellipse;whiteSpace=wrap;html=1;rounded=0;sketch=0;fontColor=#5AA9E6;strokeColor=#808080;strokeWidth=2;fillColor=none;direction=west;rotation=-68;" parent="1" vertex="1">
          <mxGeometry x="379.67" y="950.65" width="149" height="104.35" as="geometry" />
        </mxCell>
        <mxCell id="BIsey0PxNQM_dKFQf3kn-32" value="" style="ellipse;whiteSpace=wrap;html=1;rounded=0;sketch=0;fontColor=#5AA9E6;strokeColor=#808080;strokeWidth=2;fillColor=none;direction=west;rotation=45;" parent="1" vertex="1">
          <mxGeometry x="-29.65" y="828.27" width="477.4" height="242.95" as="geometry" />
        </mxCell>
        <mxCell id="BIsey0PxNQM_dKFQf3kn-33" value="" style="endArrow=classic;html=1;fontColor=#5AA9E6;fillColor=#FFE45E;strokeColor=#4D4D4D;strokeWidth=2;" parent="1" edge="1">
          <mxGeometry width="50" height="50" relative="1" as="geometry">
            <mxPoint x="140" y="690" as="sourcePoint" />
            <mxPoint x="160" y="760" as="targetPoint" />
          </mxGeometry>
        </mxCell>
        <mxCell id="BIsey0PxNQM_dKFQf3kn-35" value="" style="endArrow=classic;html=1;fontColor=#5AA9E6;fillColor=#FFE45E;strokeColor=#4D4D4D;strokeWidth=2;entryX=0.018;entryY=0.214;entryDx=0;entryDy=0;entryPerimeter=0;" parent="1" target="BIsey0PxNQM_dKFQf3kn-9" edge="1">
          <mxGeometry width="50" height="50" relative="1" as="geometry">
            <mxPoint x="140" y="685" as="sourcePoint" />
            <mxPoint x="160" y="755" as="targetPoint" />
          </mxGeometry>
        </mxCell>
        <mxCell id="BIsey0PxNQM_dKFQf3kn-36" value="NoData Node" style="text;html=1;strokeColor=none;fillColor=none;align=center;verticalAlign=middle;whiteSpace=wrap;rounded=0;sketch=0;fontColor=#808080;" parent="1" vertex="1">
          <mxGeometry x="96" y="660" width="80" height="20" as="geometry" />
        </mxCell>
      </root>
    </mxGraphModel>
  </diagram>
</mxfile>
